<mxfile host="app.diagrams.net" modified="2024-01-10T22:11:08.781Z" agent="Mozilla/5.0 (Windows NT 10.0; Win64; x64) AppleWebKit/537.36 (KHTML, like Gecko) Chrome/120.0.0.0 Safari/537.36" etag="VGMPXIwxWbjRokFzPOFD" version="22.1.16" type="github">
  <diagram name="Page-1" id="IW9jL5fg127tjISvftam">
    <mxGraphModel dx="2074" dy="1120" grid="1" gridSize="10" guides="1" tooltips="1" connect="1" arrows="1" fold="1" page="1" pageScale="1" pageWidth="827" pageHeight="1169" math="0" shadow="0">
      <root>
        <mxCell id="0" />
        <mxCell id="1" parent="0" />
        <mxCell id="0X1cIiPEp1Rx1hilPjo3-1" value="User search recipe" style="rounded=0;whiteSpace=wrap;html=1;" vertex="1" parent="1">
          <mxGeometry x="354" y="30" width="120" height="60" as="geometry" />
        </mxCell>
        <mxCell id="0X1cIiPEp1Rx1hilPjo3-10" value="" style="edgeStyle=orthogonalEdgeStyle;rounded=0;orthogonalLoop=1;jettySize=auto;html=1;exitX=0.5;exitY=1;exitDx=0;exitDy=0;entryX=0.5;entryY=0;entryDx=0;entryDy=0;" edge="1" parent="1" source="0X1cIiPEp1Rx1hilPjo3-1" target="0X1cIiPEp1Rx1hilPjo3-2">
          <mxGeometry relative="1" as="geometry">
            <mxPoint x="470" y="110" as="targetPoint" />
          </mxGeometry>
        </mxCell>
        <mxCell id="0X1cIiPEp1Rx1hilPjo3-2" value="User fill search input" style="rounded=0;whiteSpace=wrap;html=1;" vertex="1" parent="1">
          <mxGeometry x="354" y="160" width="120" height="60" as="geometry" />
        </mxCell>
        <mxCell id="0X1cIiPEp1Rx1hilPjo3-4" value="Recipe match" style="rhombus;whiteSpace=wrap;html=1;" vertex="1" parent="1">
          <mxGeometry x="358.5" y="300" width="111" height="100" as="geometry" />
        </mxCell>
        <mxCell id="0X1cIiPEp1Rx1hilPjo3-5" value="Add recipes match&lt;br&gt;in result" style="rounded=0;whiteSpace=wrap;html=1;" vertex="1" parent="1">
          <mxGeometry x="354" y="480" width="120" height="60" as="geometry" />
        </mxCell>
        <mxCell id="0X1cIiPEp1Rx1hilPjo3-6" value="Display cards with result" style="rounded=0;whiteSpace=wrap;html=1;" vertex="1" parent="1">
          <mxGeometry x="354" y="630" width="120" height="60" as="geometry" />
        </mxCell>
        <mxCell id="0X1cIiPEp1Rx1hilPjo3-8" value="Display tags with result" style="rounded=0;whiteSpace=wrap;html=1;" vertex="1" parent="1">
          <mxGeometry x="354" y="760" width="120" height="60" as="geometry" />
        </mxCell>
        <mxCell id="0X1cIiPEp1Rx1hilPjo3-12" value="" style="endArrow=classic;html=1;rounded=0;exitX=0.5;exitY=1;exitDx=0;exitDy=0;entryX=0.5;entryY=0;entryDx=0;entryDy=0;" edge="1" parent="1" source="0X1cIiPEp1Rx1hilPjo3-2" target="0X1cIiPEp1Rx1hilPjo3-4">
          <mxGeometry width="50" height="50" relative="1" as="geometry">
            <mxPoint x="710" y="600" as="sourcePoint" />
            <mxPoint x="760" y="550" as="targetPoint" />
          </mxGeometry>
        </mxCell>
        <mxCell id="0X1cIiPEp1Rx1hilPjo3-13" value="" style="endArrow=classic;html=1;rounded=0;exitX=0.5;exitY=1;exitDx=0;exitDy=0;entryX=0.5;entryY=0;entryDx=0;entryDy=0;" edge="1" parent="1" source="0X1cIiPEp1Rx1hilPjo3-4" target="0X1cIiPEp1Rx1hilPjo3-5">
          <mxGeometry width="50" height="50" relative="1" as="geometry">
            <mxPoint x="710" y="600" as="sourcePoint" />
            <mxPoint x="760" y="550" as="targetPoint" />
          </mxGeometry>
        </mxCell>
        <mxCell id="0X1cIiPEp1Rx1hilPjo3-14" value="" style="endArrow=classic;html=1;rounded=0;exitX=0.5;exitY=1;exitDx=0;exitDy=0;entryX=0.5;entryY=0;entryDx=0;entryDy=0;" edge="1" parent="1" source="0X1cIiPEp1Rx1hilPjo3-5" target="0X1cIiPEp1Rx1hilPjo3-6">
          <mxGeometry width="50" height="50" relative="1" as="geometry">
            <mxPoint x="710" y="600" as="sourcePoint" />
            <mxPoint x="760" y="550" as="targetPoint" />
          </mxGeometry>
        </mxCell>
        <mxCell id="0X1cIiPEp1Rx1hilPjo3-15" value="" style="endArrow=classic;html=1;rounded=0;exitX=0.5;exitY=1;exitDx=0;exitDy=0;entryX=0.5;entryY=0;entryDx=0;entryDy=0;" edge="1" parent="1" source="0X1cIiPEp1Rx1hilPjo3-6" target="0X1cIiPEp1Rx1hilPjo3-8">
          <mxGeometry width="50" height="50" relative="1" as="geometry">
            <mxPoint x="710" y="600" as="sourcePoint" />
            <mxPoint x="450" y="740" as="targetPoint" />
          </mxGeometry>
        </mxCell>
        <mxCell id="0X1cIiPEp1Rx1hilPjo3-16" value="" style="endArrow=classic;html=1;rounded=0;exitX=1;exitY=0.5;exitDx=0;exitDy=0;entryX=1;entryY=0.5;entryDx=0;entryDy=0;" edge="1" parent="1" source="0X1cIiPEp1Rx1hilPjo3-4" target="0X1cIiPEp1Rx1hilPjo3-2">
          <mxGeometry width="50" height="50" relative="1" as="geometry">
            <mxPoint x="710" y="600" as="sourcePoint" />
            <mxPoint x="760" y="550" as="targetPoint" />
            <Array as="points">
              <mxPoint x="530" y="350" />
              <mxPoint x="530" y="190" />
            </Array>
          </mxGeometry>
        </mxCell>
        <mxCell id="0X1cIiPEp1Rx1hilPjo3-17" value="Yes" style="text;html=1;strokeColor=none;fillColor=none;align=center;verticalAlign=middle;whiteSpace=wrap;rounded=0;" vertex="1" parent="1">
          <mxGeometry x="414" y="410" width="60" height="30" as="geometry" />
        </mxCell>
        <mxCell id="0X1cIiPEp1Rx1hilPjo3-18" value="No" style="text;html=1;strokeColor=none;fillColor=none;align=center;verticalAlign=middle;whiteSpace=wrap;rounded=0;" vertex="1" parent="1">
          <mxGeometry x="550" y="250" width="60" height="30" as="geometry" />
        </mxCell>
      </root>
    </mxGraphModel>
  </diagram>
</mxfile>
